<svg xmlns="http://www.w3.org/2000/svg" width="40" height="23" viewBox="0 0 40 23" fill="none">
<path d="M32.0318 7.66673C31.0085 7.66289 30.0299 7.84372 29.1296 8.17554L24.2746 0.679399C24.14 0.471605 23.9523 0.300154 23.7293 0.181268C23.5063 0.062382 23.2553 -8.3229e-06 23.0001 8.32766e-10H19.0001C18.4478 8.32766e-10 18.0001 0.429034 18.0001 0.958333V1.91667C18.0001 2.44597 18.4478 2.875 19.0001 2.875H22.1656L23.0966 4.3125H16.0001V3.35417C16.0001 2.82487 15.5524 2.39583 15.0001 2.39583H9.53395C8.69388 2.39583 7.98539 3.05463 8.00045 3.85951C8.01495 4.64079 8.6802 5.27083 9.50013 5.27083H12.5455L10.7069 8.11708C9.86738 7.82779 8.96295 7.66888 8.01995 7.66667C3.63089 7.65648 0.0257646 11.0814 0.0001396 15.2876C-0.0257979 19.5428 3.56595 23 8.00014 23C11.7278 23 14.86 20.5567 15.7481 17.25H19.0001C19.2556 17.25 19.5069 17.1875 19.7301 17.0683C19.9533 16.9492 20.141 16.7773 20.2755 16.5692L25.6481 8.25185L26.5818 9.69336C24.9908 11.0978 23.9952 13.1123 24.0001 15.3497C24.0091 19.4726 27.6188 22.9596 31.9206 22.9996C36.3335 23.0406 39.9319 19.6572 39.9991 15.4529C40.0669 11.2039 36.4662 7.68326 32.0318 7.66673ZM11.6719 12.0853C12.2798 12.7159 12.7139 13.5025 12.8995 14.375H10.1929L11.6719 12.0853ZM8.00014 20.125C5.24314 20.125 3.00014 17.9755 3.00014 15.3333C3.00014 12.6912 5.24314 10.5417 8.00014 10.5417C8.36695 10.5417 8.72426 10.5808 9.06882 10.653L6.22476 15.0559C5.6072 16.0118 6.32582 17.25 7.50014 17.25H12.5814C11.8083 18.9406 10.0463 20.125 8.00014 20.125ZM18.1645 14.375H15.938C15.6905 12.4729 14.7158 10.7876 13.2891 9.58178L14.8357 7.1875H22.8074L18.1645 14.375ZM31.7306 20.1182C29.1658 19.9885 27.1025 17.9804 27.0039 15.5209C26.9531 14.2558 27.4184 13.094 28.2123 12.2108L30.9894 16.4985C31.2806 16.9482 31.8971 17.0865 32.3664 16.8074L33.216 16.302C33.6852 16.0229 33.8296 15.4321 33.5382 14.9824L30.759 10.6913C31.1645 10.5918 31.5815 10.5415 32.0001 10.5417C34.7571 10.5417 37.0001 12.6913 37.0001 15.3334C37.0001 18.0611 34.6094 20.2638 31.7306 20.1182Z" fill="#CFFF0B"/>
</svg>