<svg xmlns="http://www.w3.org/2000/svg" width="24" height="23" viewBox="0 0 24 23" fill="none">
<path d="M24 11.5C24 17.8513 18.6274 23 12 23C5.37256 23 0 17.8513 0 11.5C0 5.14871 5.37256 0 12 0C18.6274 0 24 5.14871 24 11.5ZM10.612 17.5892L19.5152 9.0569C19.8175 8.76717 19.8175 8.29739 19.5152 8.00766L18.4203 6.95843C18.118 6.66866 17.6278 6.66866 17.3254 6.95843L10.0645 13.9168L6.67456 10.6681C6.37224 10.3783 5.88203 10.3783 5.57966 10.6681L4.48481 11.7173C4.18248 12.007 4.18248 12.4768 4.48481 12.7665L9.51706 17.5891C9.81944 17.8789 10.3096 17.8789 10.612 17.5892Z" fill="#D9D9D9"/>
</svg>