<svg xmlns="http://www.w3.org/2000/svg" width="21" height="23" viewBox="0 0 21 23" fill="none">
<path d="M20.4375 7.1875C20.7469 7.1875 21 6.94492 21 6.64844V4.85156C21 4.55508 20.7469 4.3125 20.4375 4.3125H19.5V2.15625C19.5 0.96582 18.4922 0 17.25 0H2.25C1.00781 0 0 0.96582 0 2.15625V20.8438C0 22.0342 1.00781 23 2.25 23H17.25C18.4922 23 19.5 22.0342 19.5 20.8438V18.6875H20.4375C20.7469 18.6875 21 18.4449 21 18.1484V16.3516C21 16.0551 20.7469 15.8125 20.4375 15.8125H19.5V12.9375H20.4375C20.7469 12.9375 21 12.6949 21 12.3984V10.6016C21 10.3051 20.7469 10.0625 20.4375 10.0625H19.5V7.1875H20.4375ZM9.75 5.75C11.4047 5.75 12.75 7.03926 12.75 8.625C12.75 10.2107 11.4047 11.5 9.75 11.5C8.09531 11.5 6.75 10.2107 6.75 8.625C6.75 7.03926 8.09531 5.75 9.75 5.75ZM15 16.3875C15 16.8637 14.5312 17.25 13.95 17.25H5.55C4.96875 17.25 4.5 16.8637 4.5 16.3875V15.525C4.5 14.0965 5.91094 12.9375 7.65 12.9375H7.88437C8.46094 13.1666 9.08906 13.2969 9.75 13.2969C10.4109 13.2969 11.0437 13.1666 11.6156 12.9375H11.85C13.5891 12.9375 15 14.0965 15 15.525V16.3875Z" fill="#CFFF0B"/>
</svg>