<svg xmlns="http://www.w3.org/2000/svg" width="25" height="25" viewBox="0 0 25 25" fill="none">
  <g clip-path="url(#clip0_87_15)">
    <path d="M0.908184 1.20118L5.98631 0.0293061C6.53807 -0.097647 7.10447 0.190439 7.32908 0.708017L9.67283 6.17677C9.87791 6.65528 9.74119 7.21681 9.33592 7.54395L6.37693 9.96583C8.13475 13.7109 11.206 16.8262 15.0293 18.6182L17.4512 15.6592C17.7832 15.2539 18.3398 15.1172 18.8183 15.3223L24.2871 17.666C24.8095 17.8955 25.0976 18.4619 24.9707 19.0137L23.7988 24.0918C23.6767 24.6191 23.208 25 22.6562 25C10.1513 25 -2.09808e-05 14.8682 -2.09808e-05 2.34376C-2.09808e-05 1.79688 0.375957 1.32325 0.908184 1.20118Z" fill="black"/>
  </g>
  <defs>
    <clipPath id="clip0_87_15">
      <rect width="25" height="25" fill="white" transform="matrix(-1 0 0 1 25 0)"/>
    </clipPath>
  </defs>
</svg>