<svg width="16" height="17" viewBox="0 0 16 17" fill="none" xmlns="http://www.w3.org/2000/svg">
<path id="Vector" d="M4.96436 0.00507726C4.45935 -0.0453934 3.98933 0.284658 3.86026 0.805967L3.39744 2.67438C9.26076 2.85667 13.2271 7.01121 13.4753 13.2002L15.2547 12.6762C15.746 12.5314 16.0513 12.0227 15.9929 11.4842C15.3403 5.48148 10.6492 0.575197 4.96436 0.00507726ZM3.13712 3.72397L0.0166966 16.3247C-0.00598787 16.4162 -0.00555029 16.5125 0.0179652 16.6038C0.0414806 16.6951 0.0872422 16.7782 0.150634 16.8447C0.214025 16.9112 0.292804 16.9588 0.379024 16.9827C0.465244 17.0065 0.555856 17.0057 0.641718 16.9805L12.4859 13.4907C12.3524 7.68359 8.63949 3.79038 3.13712 3.7253V3.72397ZM3.99964 13.8131C3.80186 13.8131 3.60851 13.7508 3.44406 13.6341C3.2796 13.5173 3.15142 13.3514 3.07573 13.1572C3.00004 12.963 2.98024 12.7494 3.01883 12.5433C3.05741 12.3372 3.15266 12.1479 3.29251 11.9993C3.43237 11.8507 3.61056 11.7495 3.80455 11.7085C3.99854 11.6675 4.19961 11.6885 4.38234 11.7689C4.56507 11.8493 4.72126 11.9855 4.83114 12.1603C4.94103 12.335 4.99968 12.5404 4.99968 12.7506C4.99968 13.0324 4.89432 13.3027 4.70677 13.5019C4.51923 13.7012 4.26487 13.8131 3.99964 13.8131ZM5.4997 8.76606C5.30191 8.76606 5.10856 8.70374 4.94411 8.58699C4.77965 8.47023 4.65147 8.30429 4.57578 8.11013C4.50009 7.91598 4.48029 7.70234 4.51888 7.49623C4.55746 7.29011 4.65271 7.10079 4.79256 6.95219C4.93242 6.80359 5.11061 6.70239 5.3046 6.66139C5.49859 6.62039 5.69966 6.64144 5.88239 6.72186C6.06512 6.80228 6.22131 6.93847 6.33119 7.1132C6.44108 7.28794 6.49973 7.49337 6.49973 7.70352C6.49973 7.98532 6.39437 8.25558 6.20683 8.45485C6.01928 8.65411 5.76492 8.76606 5.4997 8.76606ZM8.74981 12.2193C8.55202 12.2193 8.35867 12.157 8.19422 12.0402C8.02976 11.9235 7.90158 11.7575 7.82589 11.5634C7.7502 11.3692 7.7304 11.1556 7.76899 10.9495C7.80757 10.7434 7.90282 10.554 8.04268 10.4054C8.18253 10.2568 8.36072 10.1556 8.55471 10.1146C8.7487 10.0737 8.94977 10.0947 9.1325 10.1751C9.31524 10.2555 9.47142 10.3917 9.5813 10.5665C9.69119 10.7412 9.74984 10.9466 9.74984 11.1568C9.74984 11.4386 9.64448 11.7088 9.45694 11.9081C9.26939 12.1074 9.01503 12.2193 8.74981 12.2193Z" fill="#CB7D27"/>
</svg>
