<svg width="16" height="21" viewBox="0 0 16 21" fill="none" xmlns="http://www.w3.org/2000/svg">
<path id="Vector" d="M13.7697 6.57447H13.7312C13.826 5.74813 13.7452 4.91106 13.4938 4.11816C13.2425 3.32526 12.8264 2.59445 12.2728 1.97366C11.7192 1.35286 11.0406 0.856109 10.2816 0.515971C9.52254 0.175834 8.70016 0 7.86838 0C7.03661 0 6.21423 0.175834 5.45518 0.515971C4.69613 0.856109 4.01755 1.35286 3.46396 1.97366C2.91037 2.59445 2.49427 3.32526 2.24294 4.11816C1.99161 4.91106 1.91073 5.74813 2.00562 6.57447H1.9671C1.44539 6.57447 0.945051 6.78172 0.576149 7.15062C0.207247 7.51953 0 8.01986 0 8.54157C0 9.06328 0.207247 9.56362 0.576149 9.93252C0.945051 10.3014 1.44539 10.5087 1.9671 10.5087H13.7697C14.2914 10.5087 14.7917 10.3014 15.1606 9.93252C15.5295 9.56362 15.7368 9.06328 15.7368 8.54157C15.7368 8.01986 15.5295 7.51953 15.1606 7.15062C14.7917 6.78172 14.2914 6.57447 13.7697 6.57447ZM6.6955 20.2495C6.79889 20.4735 6.9643 20.6633 7.17216 20.7963C7.38001 20.9293 7.62162 21 7.86838 21C8.11515 21 8.35676 20.9293 8.56461 20.7963C8.77247 20.6633 8.93787 20.4735 9.04127 20.2495L13.114 11.8201H2.62279L6.6955 20.2495Z" fill="#C01B53"/>
</svg>
