<svg width="16" height="11" viewBox="0 0 16 11" fill="none" xmlns="http://www.w3.org/2000/svg">
<path id="Vector" opacity="0.5" d="M6.78412 0.736776L7.57471 0.177582C7.90947 -0.059194 8.45077 -0.059194 8.78197 0.177582L15.705 5.07179C16.0397 5.30856 16.0397 5.69144 15.705 5.92569L8.78197 10.8224C8.44721 11.0592 7.90591 11.0592 7.57471 10.8224L6.78412 10.2632C6.44581 10.0239 6.45293 9.6335 6.79837 9.39924L11.0896 6.50756H0.854693C0.38105 6.50756 0 6.23804 0 5.90302V5.09698C0 4.76196 0.38105 4.49244 0.854693 4.49244H11.0896L6.79837 1.60076C6.44937 1.3665 6.44225 0.976071 6.78412 0.736776Z" fill="black"/>
</svg>
